nColumns=28
nRows=46
DataType=double
version=3
OpenSimVersion=4.1
endheader
time	ground_force_1_vx	ground_force_1_vy	ground_force_1_vz	ground_force_1_px	ground_force_1_py	ground_force_1_pz	ground_force_1_mx	ground_force_1_my	ground_force_1_mz	ground_force_2_vx	ground_force_2_vy	ground_force_2_vz	ground_force_2_px	ground_force_2_py	ground_force_2_pz	ground_force_2_mx	ground_force_2_my	ground_force_2_mz	ground_force_3_vx	ground_force_3_vy	ground_force_3_vz	ground_force_3_px	ground_force_3_py	ground_force_3_pz	ground_force_3_mx	ground_force_3_my	ground_force_3_mz
8.88	12.6034	466.43	-86.758	-0.267393	0.006	-0.426854	0	-1.04577	0	0.943671	403.565	80.9721	-0.216243	0.006	-0.84153	0	-0.775316	0	0	0	0	0	0	0	0	0	0
8.89	12.863	460.787	-88.2287	-0.267608	0.006	-0.426571	0	-0.858881	0	0.665187	397.867	82.496	-0.216138	0.006	-0.841865	0	-0.975921	0	0	0	0	0	0	0	0	0	0
8.9	13.0687	454.331	-89.4222	-0.267754	0.006	-0.426251	0	-0.68063	0	0.443635	391.421	83.7567	-0.215994	0.006	-0.842224	0	-1.15248	0	0	0	0	0	0	0	0	0	0
8.91	13.2247	447.136	-90.326	-0.26782	0.006	-0.425893	0	-0.512008	0	0.285667	384.34	84.7413	-0.215812	0.006	-0.842603	0	-1.3027	0	0	0	0	0	0	0	0	0	0
8.92	13.3334	439.263	-90.9306	-0.267795	0.006	-0.425492	0	-0.353772	0	0.189842	376.732	85.44	-0.215587	0.006	-0.843002	0	-1.42544	0	0	0	0	0	0	0	0	0	0
8.93	13.3963	430.768	-91.2278	-0.26767	0.006	-0.42505	0	-0.206494	0	0.146809	368.7	85.8477	-0.21531	0.006	-0.843419	0	-1.52067	0	0	0	0	0	0	0	0	0	0
8.94	13.4144	421.697	-91.2094	-0.267443	0.006	-0.424569	0	-0.070611	0	0.140573	360.341	85.9647	-0.21497	0.006	-0.843852	0	-1.58941	0	0	0	0	0	0	0	0	0	0
8.95	13.3891	412.098	-90.8688	-0.267113	0.006	-0.424053	0	0.053487	0	0.151336	351.746	85.7968	-0.21455	0.006	-0.844302	0	-1.63358	0	0	0	0	0	0	0	0	0	0
8.96	13.3217	402.025	-90.2024	-0.266685	0.006	-0.423509	0	0.165552	0	0.158337	343	85.3545	-0.214035	0.006	-0.844768	0	-1.65556	0	0	0	0	0	0	0	0	0	0
8.97	13.212	391.544	-89.212	-0.266163	0.006	-0.422944	0	0.265514	0	0.141707	334.191	84.6532	-0.213412	0.006	-0.845249	0	-1.65784	0	0	0	0	0	0	0	0	0	0
8.98	13.0564	380.733	-87.9063	-0.265551	0.006	-0.422367	0	0.353454	0	0.0832542	325.406	83.7136	-0.212668	0.006	-0.845747	0	-1.64316	0	0	0	0	0	0	0	0	0	0
8.99	12.8475	369.677	-86.3029	-0.26485	0.006	-0.42178	0	0.429577	0	-0.0327584	316.73	82.5621	-0.21179	0.006	-0.846261	0	-1.61446	0	0	0	0	0	0	0	0	0	0
9	12.5759	358.471	-84.4272	-0.264057	0.006	-0.421186	0	0.494261	0	-0.218764	308.247	81.2296	-0.21077	0.006	-0.846791	0	-1.57475	0	0	0	0	0	0	0	0	0	0
9.01	12.2336	347.217	-82.3111	-0.263169	0.006	-0.420586	0	0.547987	0	-0.483052	300.038	79.7496	-0.209599	0.006	-0.847335	0	-1.52693	0	0	0	0	0	0	0	0	0	0
9.02	11.8161	336.022	-79.9919	-0.262183	0.006	-0.41998	0	0.591347	0	-0.830063	292.184	78.1559	-0.208276	0.006	-0.847892	0	-1.47362	0	0	0	0	0	0	0	0	0	0
9.03	11.3221	325.002	-77.5117	-0.261094	0.006	-0.419365	0	0.624953	0	-1.26121	284.76	76.4809	-0.206802	0.006	-0.848459	0	-1.41695	0	0	0	0	0	0	0	0	0	0
9.04	10.7521	314.281	-74.9162	-0.259902	0.006	-0.418741	0	0.649197	0	-1.77498	277.836	74.7527	-0.205186	0.006	-0.849032	0	-1.35844	0	0	0	0	0	0	0	0	0	0
9.05	10.1096	303.982	-72.2526	-0.258608	0.006	-0.41811	0	0.664089	0	-2.3668	271.471	72.9941	-0.203446	0.006	-0.849603	0	-1.29911	0	0	0	0	0	0	0	0	0	0
9.06	9.40265	294.23	-69.5678	-0.25722	0.006	-0.417472	0	0.669379	0	-3.02873	265.713	71.2237	-0.201604	0.006	-0.850167	0	-1.2394	0	0	0	0	0	0	0	0	0	0
9.07	8.64329	285.145	-66.9078	-0.255752	0.006	-0.41683	0	0.664773	0	-3.74951	260.594	69.4582	-0.199692	0.006	-0.850714	0	-1.17937	0	0	0	0	0	0	0	0	0	0
9.08	7.84431	276.84	-64.3172	-0.254222	0.006	-0.416192	0	0.650194	0	-4.51579	256.133	67.7133	-0.197746	0.006	-0.851234	0	-1.11879	0	0	0	0	0	0	0	0	0	0
9.09	7.01709	269.409	-61.8393	-0.252653	0.006	-0.415563	0	0.625945	0	-5.31252	252.33	66.0046	-0.195805	0.006	-0.851718	0	-1.05732	0	0	0	0	0	0	0	0	0	0
9.1	6.17167	262.923	-59.5155	-0.251069	0.006	-0.41495	0	0.592826	0	-6.12273	249.168	64.3466	-0.193909	0.006	-0.85216	0	-0.994592	0	0	0	0	0	0	0	0	0	0
9.11	5.31888	257.426	-57.3828	-0.249498	0.006	-0.414359	0	0.552098	0	-6.92689	246.616	62.7509	-0.192101	0.006	-0.852551	0	-0.930275	0	0	0	0	0	0	0	0	0	0
9.12	4.47186	252.936	-55.472	-0.247972	0.006	-0.413796	0	0.505394	0	-7.70365	244.624	61.2266	-0.190424	0.006	-0.852886	0	-0.864104	0	0	0	0	0	0	0	0	0	0
9.13	3.64526	249.448	-53.8065	-0.246527	0.006	-0.413268	0	0.454577	0	-8.43208	243.138	59.7815	-0.188917	0.006	-0.85316	0	-0.795998	0	0	0	0	0	0	0	0	0	0
9.14	2.85371	246.943	-52.4007	-0.245198	0.006	-0.412781	0	0.40163	0	-9.09363	242.1	58.4238	-0.187616	0.006	-0.853371	0	-0.726305	0	0	0	0	0	0	0	0	0	0
9.15	2.11028	245.385	-51.2597	-0.24402	0.006	-0.412344	0	0.348406	0	-9.67456	241.458	57.1615	-0.186544	0.006	-0.853519	0	-0.655848	0	0	0	0	0	0	0	0	0	0
9.16	1.4253	244.727	-50.3791	-0.243023	0.006	-0.411964	0	0.29658	0	-10.1683	241.165	56.0031	-0.185719	0.006	-0.853604	0	-0.585891	0	0	0	0	0	0	0	0	0	0
9.17	0.805229	244.901	-49.7453	-0.242231	0.006	-0.411649	0	0.247633	0	-10.5751	241.182	54.9567	-0.185149	0.006	-0.853629	0	-0.517943	0	0	0	0	0	0	0	0	0	0
9.18	0.252186	245.82	-49.3361	-0.241656	0.006	-0.411404	0	0.202698	0	-10.8999	241.475	54.0279	-0.184834	0.006	-0.853598	0	-0.453391	0	0	0	0	0	0	0	0	0	0
9.19	-0.235855	247.377	-49.1208	-0.241299	0.006	-0.411235	0	0.162465	0	-11.1497	242.016	53.2163	-0.184769	0.006	-0.853515	0	-0.393109	0	0	0	0	0	0	0	0	0	0
9.2	-0.66365	249.448	-49.0619	-0.241153	0.006	-0.411144	0	0.127151	0	-11.3323	242.778	52.514	-0.184943	0.006	-0.853381	0	-0.337194	0	0	0	0	0	0	0	0	0	0
9.21	-1.03757	251.905	-49.1164	-0.241204	0.006	-0.411134	0	0.096475	0	-11.4567	243.732	51.9051	-0.185337	0.006	-0.853201	0	-0.284942	0	0	0	0	0	0	0	0	0	0
9.22	-1.36579	254.619	-49.2394	-0.241433	0.006	-0.411205	0	0.069661	0	-11.5342	244.84	51.3687	-0.185926	0.006	-0.852979	0	-0.23505	0	0	0	0	0	0	0	0	0	0
9.23	-1.65723	257.471	-49.3864	-0.241818	0.006	-0.411359	0	0.045525	0	-11.5784	246.059	50.8821	-0.18668	0.006	-0.852719	0	-0.185796	0	0	0	0	0	0	0	0	0	0
9.24	-1.92009	260.35	-49.5134	-0.242337	0.006	-0.411594	0	0.022659	0	-11.603	247.346	50.4231	-0.187565	0.006	-0.852428	0	-0.135417	0	0	0	0	0	0	0	0	0	0
9.25	-2.16022	263.151	-49.578	-0.24297	0.006	-0.41191	0	-0.000416	0	-11.6201	248.655	49.9727	-0.18855	0.006	-0.852112	0	-0.08233	0	0	0	0	0	0	0	0	0	0
9.26	-2.37888	265.777	-49.5396	-0.243696	0.006	-0.412302	0	-0.025197	0	-11.6379	249.947	49.5137	-0.189606	0.006	-0.851778	0	-0.0251	0	0	0	0	0	0	0	0	0	0
9.27	-2.57019	268.141	-49.3605	-0.2445	0.006	-0.412763	0	-0.053227	0	-11.6572	251.186	49.0291	-0.190708	0.006	-0.851429	0	0.037506	0	0	0	0	0	0	0	0	0	0
9.28	-2.71909	270.164	-49.0094	-0.245366	0.006	-0.413285	0	-0.086087	0	-11.6711	252.335	48.5025	-0.191837	0.006	-0.85107	0	0.106353	0	0	0	0	0	0	0	0	0	0
9.29	-2.80126	271.79	-48.4664	-0.246283	0.006	-0.413858	0	-0.125276	0	-11.6662	253.37	47.9203	-0.192977	0.006	-0.850704	0	0.181877	0	0	0	0	0	0	0	0	0	0
9.3	-2.78907	272.992	-47.7301	-0.247242	0.006	-0.414464	0	-0.172064	0	-11.6226	254.286	47.2741	-0.19412	0.006	-0.850333	0	0.264141	0	0	0	0	0	0	0	0	0	0
9.31	-2.65904	273.793	-46.821	-0.248231	0.006	-0.415089	0	-0.227405	0	-11.5191	255.103	46.5648	-0.195261	0.006	-0.849961	0	0.352883	0	0	0	0	0	0	0	0	0	0
9.32	-2.39422	274.264	-45.7787	-0.249237	0.006	-0.41571	0	-0.291919	0	-11.3359	255.872	45.8048	-0.196396	0.006	-0.849594	0	0.447477	0	0	0	0	0	0	0	0	0	0
9.33	-1.984	274.517	-44.6577	-0.250246	0.006	-0.416306	0	-0.365926	0	-11.0566	256.669	45.018	-0.197523	0.006	-0.84924	0	0.546966	0	0	0	0	0	0	0	0	0	0
